# Blender v2.63 (sub 0) OBJ File: 'UnspecifiedAnimalWithTexture.blend'
# www.blender.org
mtllib UnspecifiedAnimalWithTexture.mtl
o Cube
v -1.080628 1.797249 0.328250
v -1.415437 1.529402 0.328250
v -1.308298 1.663326 0.328250
v -0.879743 1.971349 0.328250
v -0.785997 1.743680 0.328250
v -0.585111 1.502618 0.328250
v -0.183341 1.355302 0.328250
v 0.271998 1.341910 0.328250
v 0.740730 1.315125 0.328250
v 0.981792 1.154417 0.328250
v 1.209462 0.886570 0.328250
v 0.914831 1.033886 0.328250
v 0.847869 0.886570 0.328250
v 0.687161 0.752647 0.328250
v 0.606807 0.565154 0.328250
v 0.687161 0.417838 0.328250
v 0.794299 0.230345 0.328250
v 0.754122 0.056245 0.328250
v 0.499668 0.083030 0.328250
v 0.459491 0.230346 0.328250
v 0.325568 0.524977 0.328250
v 0.298783 0.725862 0.328250
v 0.004151 0.672293 0.328250
v -0.303873 0.658900 0.328250
v -0.638681 0.739254 0.328250
v -0.652073 0.471408 0.328250
v -0.652073 0.257130 0.328250
v -0.638681 0.029460 0.328250
v -0.879743 0.042853 0.328250
v -0.866351 0.230345 0.328250
v -0.919920 0.484800 0.328250
v -0.973489 0.766039 0.328250
v -1.027059 1.087455 0.328250
v -1.027059 1.382087 0.328250
v -1.268121 1.248163 0.328250
v -1.469006 1.261555 0.328250
v -1.080628 1.797249 -0.349822
v -1.415437 1.529402 -0.349822
v -1.308298 1.663326 -0.349822
v -0.879743 1.971350 -0.349822
v -0.785997 1.743680 -0.349822
v -0.585111 1.502618 -0.349822
v -0.183341 1.355302 -0.349822
v 0.271998 1.341910 -0.349822
v 0.740730 1.315125 -0.349822
v 0.981792 1.154417 -0.349822
v 1.209462 0.886570 -0.349822
v 0.914831 1.033886 -0.349822
v 0.847869 0.886570 -0.349822
v 0.687161 0.752647 -0.349822
v 0.606807 0.565154 -0.349822
v 0.687161 0.417838 -0.349822
v 0.794299 0.230346 -0.349822
v 0.754122 0.056245 -0.349822
v 0.499668 0.083030 -0.349822
v 0.459491 0.230346 -0.349822
v 0.325568 0.524977 -0.349822
v 0.298783 0.725862 -0.349822
v 0.004151 0.672293 -0.349822
v -0.303873 0.658900 -0.349822
v -0.638681 0.739254 -0.349822
v -0.652073 0.471408 -0.349822
v -0.652073 0.257130 -0.349822
v -0.638681 0.029460 -0.349822
v -0.879743 0.042853 -0.349822
v -0.866351 0.230346 -0.349822
v -0.919920 0.484800 -0.349822
v -0.973489 0.766039 -0.349822
v -1.027059 1.087455 -0.349822
v -1.027059 1.382087 -0.349822
v -1.268121 1.248163 -0.349822
v -1.469006 1.261556 -0.349822
vt 0.906150 0.152337
vt 0.935762 0.152337
vt 0.935762 0.222471
vt 0.906150 0.222471
vt 0.465282 0.152329
vt 0.486919 0.152329
vt 0.486918 0.222462
vt 0.465281 0.222462
vt 0.566187 0.152332
vt 0.592650 0.152333
vt 0.592648 0.222464
vt 0.566185 0.222463
vt 0.693849 0.152335
vt 0.725738 0.152336
vt 0.725737 0.222469
vt 0.693848 0.222468
vt 0.175725 0.152328
vt 0.208188 0.152329
vt 0.208188 0.222476
vt 0.175725 0.222477
vt 0.834841 0.152337
vt 0.859812 0.152337
vt 0.859812 0.222471
vt 0.834840 0.222471
vt 0.378111 0.152327
vt 0.414472 0.152328
vt 0.414473 0.222463
vt 0.378113 0.222465
vt 0.969465 0.152337
vt 0.999939 0.152337
vt 0.999939 0.222471
vt 0.969465 0.222471
vt 0.508017 0.152330
vt 0.525373 0.152330
vt 0.525371 0.222462
vt 0.508016 0.222462
vt 0.608443 0.152333
vt 0.641916 0.152334
vt 0.641914 0.222465
vt 0.608441 0.222464
vt 0.095425 0.152326
vt 0.122752 0.152326
vt 0.122751 0.222477
vt 0.095424 0.222477
vt 0.761351 0.152336
vt 0.789089 0.152337
vt 0.789088 0.222470
vt 0.761349 0.222470
vt 0.252455 0.152329
vt 0.299578 0.152328
vt 0.299581 0.222469
vt 0.252459 0.222473
vt 0.879254 0.152337
vt 0.879254 0.222471
vt 0.448544 0.152328
vt 0.448544 0.222463
vt 0.028592 0.152324
vt 0.049422 0.152324
vt 0.049421 0.222476
vt 0.028591 0.222476
vt 0.547707 0.152331
vt 0.547706 0.222462
vt 0.662877 0.152335
vt 0.662875 0.222466
vt 0.150253 0.152327
vt 0.150253 0.222477
vt 0.811252 0.152337
vt 0.811251 0.222471
vt 0.348143 0.152327
vt 0.348145 0.222466
vt 0.077681 0.152325
vt 0.077680 0.222477
vt 0.000062 0.152324
vt 0.000061 0.222476
vt 0.180087 0.206217
vt 0.149559 0.211510
vt 0.162870 0.187442
vt 0.404469 0.218372
vt 0.370589 0.214564
vt 0.372798 0.200467
vt 0.230179 0.298534
vt 0.211925 0.333270
vt 0.196703 0.307860
vt 0.357368 0.271073
vt 0.321719 0.266437
vt 0.358493 0.249997
vt 0.238420 0.325029
vt 0.331479 0.284997
vt 0.226194 0.356078
vt 0.246054 0.345843
vt 0.387510 0.296916
vt 0.354986 0.308846
vt 0.370422 0.282521
vt 0.255465 0.367481
vt 0.364138 0.321725
vt 0.231572 0.374768
vt 0.389811 0.315260
vt 0.180049 0.278548
vt 0.169553 0.249928
vt 0.132216 0.232629
vt 0.126580 0.249455
vt 0.150908 0.271525
vt 0.130918 0.277381
vt 0.343654 0.193448
vt 0.369333 0.231261
vt 0.297167 0.207549
vt 0.295007 0.282137
vt 0.265564 0.294412
vt 0.162880 0.187360
vt 0.149570 0.163297
vt 0.180092 0.168587
vt 0.404416 0.156406
vt 0.372766 0.174312
vt 0.370555 0.160221
vt 0.230171 0.076282
vt 0.196700 0.066960
vt 0.211918 0.041553
vt 0.357333 0.103729
vt 0.358460 0.124800
vt 0.321695 0.108367
vt 0.238409 0.049791
vt 0.331450 0.089812
vt 0.226183 0.018748
vt 0.246040 0.028980
vt 0.387465 0.077890
vt 0.370383 0.092284
vt 0.354949 0.065967
vt 0.255448 0.007345
vt 0.364097 0.053091
vt 0.231559 0.000061
vt 0.389763 0.059551
vt 0.169558 0.124883
vt 0.180050 0.096268
vt 0.132227 0.142182
vt 0.126591 0.125360
vt 0.150915 0.103292
vt 0.130928 0.097438
vt 0.343631 0.181335
vt 0.369298 0.143529
vt 0.297155 0.167244
vt 0.294988 0.092672
vt 0.265549 0.080401
vn -0.695395 -0.139409 0.704917
vn -0.698630 -0.124729 0.704489
vn -0.698630 -0.124729 -0.704489
vn -0.695395 -0.139409 -0.704917
vn 0.597278 -0.455336 0.660207
vn 0.517685 -0.385815 0.763604
vn 0.517685 -0.385815 -0.763604
vn 0.597278 -0.455336 -0.660207
vn 0.471328 -0.660848 0.584033
vn -0.518509 -0.609760 0.599414
vn -0.518509 -0.609760 -0.599414
vn 0.471328 -0.660848 -0.584033
vn 0.080416 -0.717307 0.692068
vn -0.070559 -0.732475 0.677084
vn -0.070559 -0.732475 -0.677084
vn 0.080416 -0.717307 -0.692068
vn 0.573260 0.345714 0.742821
vn 0.367199 0.521195 0.770379
vn 0.367199 0.521195 -0.770379
vn 0.573260 0.345714 -0.742821
vn 0.581133 -0.579241 0.571551
vn -0.613208 -0.539994 0.576495
vn -0.613208 -0.539994 -0.576495
vn 0.581133 -0.579241 -0.571551
vn 0.489120 0.549699 0.677175
vn 0.662526 -0.519486 0.539598
vn 0.662526 -0.519486 -0.539598
vn 0.489120 0.549699 -0.677175
vn -0.722282 -0.059755 0.688986
vn -0.148045 -0.251595 0.956420
vn -0.148045 -0.251595 -0.956420
vn -0.722282 -0.059755 -0.688986
vn 0.571978 0.027009 0.819788
vn 0.615406 0.343608 0.709342
vn 0.615406 0.343608 -0.709342
vn 0.571978 0.027009 -0.819788
vn -0.647237 -0.233650 0.725578
vn -0.708640 -0.203436 0.675558
vn -0.708640 -0.203436 -0.675558
vn -0.647237 -0.233650 -0.725578
vn -0.486953 0.562090 0.668508
vn -0.399823 0.556627 0.728172
vn -0.399823 0.556627 -0.728172
vn -0.486953 0.562090 -0.668508
vn 0.227119 -0.303385 0.925382
vn 0.701163 -0.017518 0.712760
vn 0.701163 -0.017518 -0.712760
vn 0.227119 -0.303385 -0.925382
vn 0.126225 0.654958 0.745018
vn 0.030671 0.709525 0.704001
vn 0.030671 0.709525 -0.704001
vn 0.126225 0.654958 -0.745018
vn -0.671285 -0.045778 0.739738
vn -0.671285 -0.045778 -0.739738
vn 0.139195 -0.393231 0.908811
vn 0.139195 -0.393231 -0.908811
vn 0.166265 -0.742698 0.648610
vn -0.651936 -0.499130 0.570757
vn -0.651936 -0.499130 -0.570757
vn 0.166265 -0.742698 -0.648610
vn 0.765435 0.112674 0.633534
vn 0.765435 0.112674 -0.633534
vn -0.243965 -0.335154 0.910001
vn -0.243965 -0.335154 -0.910001
vn 0.190985 0.804621 0.562212
vn 0.190985 0.804621 -0.562212
vn 0.700064 0.020569 0.713767
vn 0.700064 0.020569 -0.713767
vn 0.240181 0.718650 0.652547
vn 0.240181 0.718650 -0.652547
vn -0.682882 0.318217 0.657552
vn -0.682882 0.318217 -0.657552
usemtl Material_UnspecifiedAnimalWithTexture.png
s 1
f 31/1/1 32/2/2 68/3/3
f 31/1/1 68/3/3 67/4/4
f 13/5/5 14/6/6 50/7/7
f 13/5/5 50/7/7 49/8/8
f 18/9/9 19/10/10 55/11/11
f 18/9/9 55/11/11 54/12/12
f 23/13/13 24/14/14 60/15/15
f 23/13/13 60/15/15 59/16/16
f 5/17/17 6/18/18 42/19/19
f 5/17/17 42/19/19 41/20/20
f 28/21/21 29/22/22 65/23/23
f 28/21/21 65/23/23 64/24/24
f 10/25/25 11/26/26 47/27/27
f 10/25/25 47/27/27 46/28/28
f 33/29/29 34/30/30 70/31/31
f 33/29/29 70/31/31 69/32/32
f 15/33/33 16/34/34 52/35/35
f 15/33/33 52/35/35 51/36/36
f 20/37/37 21/38/38 57/39/39
f 20/37/37 57/39/39 56/40/40
f 3/41/41 1/42/42 37/43/43
f 3/41/41 37/43/43 39/44/44
f 25/45/45 26/46/46 62/47/47
f 25/45/45 62/47/47 61/48/48
f 7/49/49 8/50/50 44/51/51
f 7/49/49 44/51/51 43/52/52
f 30/53/53 31/1/1 67/4/4
f 30/53/53 67/4/4 66/54/54
f 12/55/55 13/5/5 49/8/8
f 12/55/55 49/8/8 48/56/56
f 35/57/57 36/58/58 72/59/59
f 35/57/57 72/59/59 71/60/60
f 17/61/61 18/9/9 54/12/12
f 17/61/61 54/12/12 53/62/62
f 22/63/63 23/13/13 59/16/16
f 22/63/63 59/16/16 58/64/64
f 4/65/65 5/17/17 41/20/20
f 4/65/65 41/20/20 40/66/66
f 27/67/67 28/21/21 64/24/24
f 27/67/67 64/24/24 63/68/68
f 9/69/69 10/25/25 46/28/28
f 9/69/69 46/28/28 45/70/70
f 32/2/2 33/29/29 69/32/32
f 32/2/2 69/32/32 68/3/3
f 14/6/6 15/33/33 51/36/36
f 14/6/6 51/36/36 50/7/7
f 19/10/10 20/37/37 56/40/40
f 19/10/10 56/40/40 55/11/11
f 2/71/71 3/41/41 39/44/44
f 2/71/71 39/44/44 38/72/72
f 24/14/14 25/45/45 61/48/48
f 24/14/14 61/48/48 60/15/15
f 6/18/18 7/49/49 43/52/52
f 6/18/18 43/52/52 42/19/19
f 29/22/22 30/53/53 66/54/54
f 29/22/22 66/54/54 65/23/23
f 11/26/26 12/55/55 48/56/56
f 11/26/26 48/56/56 47/27/27
f 34/73/30 35/57/57 71/60/60
f 34/73/30 71/60/60 70/74/31
f 16/34/34 17/61/61 53/62/62
f 16/34/34 53/62/62 52/35/35
f 21/38/38 22/63/63 58/64/64
f 21/38/38 58/64/64 57/39/39
f 1/42/42 4/65/65 40/66/66
f 1/42/42 40/66/66 37/43/43
f 26/46/46 27/67/67 63/68/68
f 26/46/46 63/68/68 62/47/47
f 8/50/50 9/69/69 45/70/70
f 8/50/50 45/70/70 44/51/51
f 41/75/20 37/76/43 40/77/66
f 47/78/27 48/79/56 46/80/28
f 61/81/48 67/82/4 68/83/3
f 51/84/36 58/85/64 50/86/7
f 62/87/47 67/82/4 61/81/48
f 51/84/36 57/88/39 58/85/64
f 62/87/47 66/89/54 67/82/4
f 63/90/68 66/89/54 62/87/47
f 53/91/62 56/92/40 52/93/35
f 64/94/24 66/89/54 63/90/68
f 53/91/62 55/95/11 56/92/40
f 64/94/24 65/96/23 66/89/54
f 54/97/12 55/95/11 53/91/62
f 42/19/19 69/98/32 70/99/31
f 51/84/36 56/92/40 57/88/39
f 51/84/36 52/93/35 56/92/40
f 39/100/44 70/99/31 38/101/72
f 71/102/60 38/101/72 70/99/31
f 71/102/60 72/103/59 38/101/72
f 69/98/32 61/81/48 68/83/3
f 41/75/20 42/19/19 70/99/31
f 45/104/70 46/80/28 48/79/56
f 37/76/43 70/99/31 39/100/44
f 37/76/43 41/75/20 70/99/31
f 42/19/19 61/81/48 69/98/32
f 42/19/19 43/52/52 61/81/48
f 50/86/7 48/79/56 49/105/8
f 44/106/51 61/81/48 43/52/52
f 59/107/16 44/106/51 58/85/64
f 45/104/70 58/85/64 44/106/51
f 60/108/15 44/106/51 59/107/16
f 60/108/15 61/81/48 44/106/51
f 50/86/7 45/104/70 48/79/56
f 50/86/7 58/85/64 45/104/70
f 4/109/65 1/110/42 5/111/17
f 11/112/26 10/113/25 12/114/55
f 25/115/45 32/116/2 31/117/1
f 15/118/33 14/119/6 22/120/63
f 26/121/46 25/115/45 31/117/1
f 15/118/33 22/120/63 21/122/38
f 26/121/46 31/117/1 30/123/53
f 27/124/67 26/121/46 30/123/53
f 17/125/61 16/126/34 20/127/37
f 28/128/21 27/124/67 30/123/53
f 17/125/61 20/127/37 19/129/10
f 28/128/21 30/123/53 29/130/22
f 18/131/9 17/125/61 19/129/10
f 6/18/18 34/132/30 33/133/29
f 15/118/33 21/122/38 20/127/37
f 15/118/33 20/127/37 16/126/34
f 3/134/41 2/135/71 34/132/30
f 35/136/57 34/132/30 2/135/71
f 35/136/57 2/135/71 36/137/58
f 33/133/29 32/116/2 25/115/45
f 5/111/17 34/132/30 6/18/18
f 9/138/69 12/114/55 10/113/25
f 1/110/42 3/134/41 34/132/30
f 1/110/42 34/132/30 5/111/17
f 6/18/18 33/133/29 25/115/45
f 6/18/18 25/115/45 7/49/49
f 14/119/6 13/139/5 12/114/55
f 8/140/50 7/49/49 25/115/45
f 23/141/13 22/120/63 8/140/50
f 9/138/69 8/140/50 22/120/63
f 24/142/14 23/141/13 8/140/50
f 24/142/14 8/140/50 25/115/45
f 14/119/6 12/114/55 9/138/69
f 14/119/6 9/138/69 22/120/63
f 36/58/58 2/71/71 38/72/72
f 36/58/58 38/72/72 72/59/59
